<mxfile host="Electron" modified="2024-03-30T11:10:43.874Z" agent="Mozilla/5.0 (Windows NT 10.0; Win64; x64) AppleWebKit/537.36 (KHTML, like Gecko) draw.io/24.1.0 Chrome/120.0.6099.109 Electron/28.1.0 Safari/537.36" etag="obKSKcVvz_drFThZjMgC" version="24.1.0" type="device">
  <diagram id="C5RBs43oDa-KdzZeNtuy" name="Page-1">
    <mxGraphModel dx="1594" dy="2101" grid="0" gridSize="10" guides="1" tooltips="1" connect="1" arrows="1" fold="1" page="1" pageScale="1" pageWidth="827" pageHeight="1169" math="0" shadow="0">
      <root>
        <mxCell id="WIyWlLk6GJQsqaUBKTNV-0" />
        <mxCell id="WIyWlLk6GJQsqaUBKTNV-1" parent="WIyWlLk6GJQsqaUBKTNV-0" />
        <mxCell id="cPJrFpIsc6c82qLKrWnZ-4" value="&lt;font style=&quot;font-size: 15px;&quot;&gt;BIBLIOTECA&lt;/font&gt;" style="rounded=0;whiteSpace=wrap;html=1;fillColor=#f5f5f5;fontColor=#333333;strokeColor=#666666;" parent="WIyWlLk6GJQsqaUBKTNV-1" vertex="1">
          <mxGeometry x="703" y="253" width="120" height="30" as="geometry" />
        </mxCell>
        <mxCell id="cPJrFpIsc6c82qLKrWnZ-5" value="&lt;font style=&quot;font-size: 15px;&quot;&gt;UTENTE&lt;/font&gt;" style="rounded=0;whiteSpace=wrap;html=1;fillColor=#f5f5f5;fontColor=#333333;strokeColor=#666666;" parent="WIyWlLk6GJQsqaUBKTNV-1" vertex="1">
          <mxGeometry x="392" y="-253" width="120" height="30" as="geometry" />
        </mxCell>
        <mxCell id="cPJrFpIsc6c82qLKrWnZ-6" value="&lt;font style=&quot;font-size: 15px;&quot;&gt;EVENTO&lt;/font&gt;" style="rounded=0;whiteSpace=wrap;html=1;fillColor=#f5f5f5;fontColor=#333333;strokeColor=#666666;" parent="WIyWlLk6GJQsqaUBKTNV-1" vertex="1">
          <mxGeometry x="961" y="5" width="120" height="30" as="geometry" />
        </mxCell>
        <mxCell id="cPJrFpIsc6c82qLKrWnZ-7" value="&lt;font style=&quot;font-size: 15px;&quot;&gt;GIORNALE&lt;/font&gt;" style="rounded=0;whiteSpace=wrap;html=1;fillColor=#f5f5f5;fontColor=#333333;strokeColor=#666666;" parent="WIyWlLk6GJQsqaUBKTNV-1" vertex="1">
          <mxGeometry x="778" y="782" width="120" height="30" as="geometry" />
        </mxCell>
        <mxCell id="cPJrFpIsc6c82qLKrWnZ-8" value="&lt;font style=&quot;font-size: 15px;&quot;&gt;LIBRO&lt;/font&gt;" style="rounded=0;whiteSpace=wrap;html=1;fillColor=#f5f5f5;fontColor=#333333;strokeColor=#666666;" parent="WIyWlLk6GJQsqaUBKTNV-1" vertex="1">
          <mxGeometry x="1106" y="780" width="120" height="30" as="geometry" />
        </mxCell>
        <mxCell id="cPJrFpIsc6c82qLKrWnZ-9" value="&lt;font style=&quot;font-size: 15px;&quot;&gt;MULTIMEDIALE&lt;/font&gt;" style="rounded=0;whiteSpace=wrap;html=1;fillColor=#f5f5f5;fontColor=#333333;strokeColor=#666666;" parent="WIyWlLk6GJQsqaUBKTNV-1" vertex="1">
          <mxGeometry x="360" y="808" width="120" height="30" as="geometry" />
        </mxCell>
        <mxCell id="cPJrFpIsc6c82qLKrWnZ-11" value="&lt;font style=&quot;font-size: 14px;&quot;&gt;CATALOGATORE&lt;/font&gt;" style="rounded=0;whiteSpace=wrap;html=1;fillColor=#f5f5f5;fontColor=#333333;strokeColor=#666666;" parent="WIyWlLk6GJQsqaUBKTNV-1" vertex="1">
          <mxGeometry x="550" y="-87" width="120" height="30" as="geometry" />
        </mxCell>
        <mxCell id="cPJrFpIsc6c82qLKrWnZ-16" value="&lt;span style=&quot;font-size: 14px;&quot;&gt;BIBLIOTECARIO&lt;/span&gt;" style="rounded=0;whiteSpace=wrap;html=1;fillColor=#f5f5f5;fontColor=#333333;strokeColor=#666666;" parent="WIyWlLk6GJQsqaUBKTNV-1" vertex="1">
          <mxGeometry x="732" y="-161" width="120" height="30" as="geometry" />
        </mxCell>
        <mxCell id="cPJrFpIsc6c82qLKrWnZ-17" value="&lt;u&gt;ISBN&lt;/u&gt;" style="ellipse;whiteSpace=wrap;html=1;" parent="WIyWlLk6GJQsqaUBKTNV-1" vertex="1">
          <mxGeometry x="1137.5" y="856" width="57" height="36" as="geometry" />
        </mxCell>
        <mxCell id="cPJrFpIsc6c82qLKrWnZ-18" value="&lt;u&gt;ISSN&lt;/u&gt;" style="ellipse;whiteSpace=wrap;html=1;" parent="WIyWlLk6GJQsqaUBKTNV-1" vertex="1">
          <mxGeometry x="799" y="858" width="57" height="36" as="geometry" />
        </mxCell>
        <mxCell id="cPJrFpIsc6c82qLKrWnZ-20" value="" style="endArrow=none;html=1;rounded=0;exitX=0.5;exitY=0;exitDx=0;exitDy=0;entryX=0.5;entryY=1;entryDx=0;entryDy=0;" parent="WIyWlLk6GJQsqaUBKTNV-1" source="cPJrFpIsc6c82qLKrWnZ-18" target="cPJrFpIsc6c82qLKrWnZ-7" edge="1">
          <mxGeometry width="50" height="50" relative="1" as="geometry">
            <mxPoint x="704" y="825" as="sourcePoint" />
            <mxPoint x="754" y="775" as="targetPoint" />
          </mxGeometry>
        </mxCell>
        <mxCell id="cPJrFpIsc6c82qLKrWnZ-21" value="" style="endArrow=none;html=1;rounded=0;exitX=0.5;exitY=0;exitDx=0;exitDy=0;" parent="WIyWlLk6GJQsqaUBKTNV-1" source="cPJrFpIsc6c82qLKrWnZ-17" target="cPJrFpIsc6c82qLKrWnZ-8" edge="1">
          <mxGeometry width="50" height="50" relative="1" as="geometry">
            <mxPoint x="943" y="767" as="sourcePoint" />
            <mxPoint x="993" y="717" as="targetPoint" />
          </mxGeometry>
        </mxCell>
        <mxCell id="cPJrFpIsc6c82qLKrWnZ-22" value="&lt;font style=&quot;font-size: 15px;&quot;&gt;HA&lt;/font&gt;" style="rhombus;whiteSpace=wrap;html=1;shadow=0;rounded=0;perimeterSpacing=0;strokeWidth=1;fillColor=#f5f5f5;fontColor=#333333;strokeColor=#666666;fillStyle=auto;double=1;" parent="WIyWlLk6GJQsqaUBKTNV-1" vertex="1">
          <mxGeometry x="1081" y="673" width="86" height="59" as="geometry" />
        </mxCell>
        <mxCell id="cPJrFpIsc6c82qLKrWnZ-24" value="" style="endArrow=none;html=1;rounded=0;entryX=0.5;entryY=1;entryDx=0;entryDy=0;exitX=0.5;exitY=0;exitDx=0;exitDy=0;" parent="WIyWlLk6GJQsqaUBKTNV-1" source="cPJrFpIsc6c82qLKrWnZ-8" target="cPJrFpIsc6c82qLKrWnZ-22" edge="1">
          <mxGeometry width="50" height="50" relative="1" as="geometry">
            <mxPoint x="855" y="679" as="sourcePoint" />
            <mxPoint x="905" y="629" as="targetPoint" />
          </mxGeometry>
        </mxCell>
        <mxCell id="cPJrFpIsc6c82qLKrWnZ-25" value="&lt;span style=&quot;font-size: 15px;&quot;&gt;COPIA&lt;/span&gt;" style="rounded=0;whiteSpace=wrap;html=1;fillColor=#f5f5f5;fontColor=#333333;strokeColor=#666666;" parent="WIyWlLk6GJQsqaUBKTNV-1" vertex="1">
          <mxGeometry x="989" y="596" width="120" height="30" as="geometry" />
        </mxCell>
        <mxCell id="cPJrFpIsc6c82qLKrWnZ-26" value="" style="endArrow=none;html=1;rounded=0;entryX=0.5;entryY=1;entryDx=0;entryDy=0;shape=link;exitX=0.5;exitY=0;exitDx=0;exitDy=0;" parent="WIyWlLk6GJQsqaUBKTNV-1" source="cPJrFpIsc6c82qLKrWnZ-22" target="cPJrFpIsc6c82qLKrWnZ-25" edge="1">
          <mxGeometry width="50" height="50" relative="1" as="geometry">
            <mxPoint x="1044" y="610" as="sourcePoint" />
            <mxPoint x="906" y="526" as="targetPoint" />
          </mxGeometry>
        </mxCell>
        <mxCell id="cPJrFpIsc6c82qLKrWnZ-27" value="&lt;font style=&quot;font-size: 15px;&quot;&gt;HA&lt;/font&gt;" style="rhombus;whiteSpace=wrap;html=1;shadow=0;rounded=0;perimeterSpacing=0;strokeWidth=1;fillColor=#f5f5f5;fontColor=#333333;strokeColor=#666666;fillStyle=auto;double=1;" parent="WIyWlLk6GJQsqaUBKTNV-1" vertex="1">
          <mxGeometry x="774" y="679" width="86" height="59" as="geometry" />
        </mxCell>
        <mxCell id="cPJrFpIsc6c82qLKrWnZ-28" value="&lt;span style=&quot;font-size: 15px;&quot;&gt;COPIA&lt;/span&gt;" style="rounded=0;whiteSpace=wrap;html=1;fillColor=#f5f5f5;fontColor=#333333;strokeColor=#666666;" parent="WIyWlLk6GJQsqaUBKTNV-1" vertex="1">
          <mxGeometry x="679.5" y="598" width="120" height="30" as="geometry" />
        </mxCell>
        <mxCell id="cPJrFpIsc6c82qLKrWnZ-29" value="" style="endArrow=none;html=1;rounded=0;entryX=0.5;entryY=1;entryDx=0;entryDy=0;exitX=0.5;exitY=0;exitDx=0;exitDy=0;shape=link;" parent="WIyWlLk6GJQsqaUBKTNV-1" source="cPJrFpIsc6c82qLKrWnZ-27" target="cPJrFpIsc6c82qLKrWnZ-28" edge="1">
          <mxGeometry width="50" height="50" relative="1" as="geometry">
            <mxPoint x="545" y="592" as="sourcePoint" />
            <mxPoint x="595" y="542" as="targetPoint" />
          </mxGeometry>
        </mxCell>
        <mxCell id="cPJrFpIsc6c82qLKrWnZ-30" value="&lt;font style=&quot;font-size: 15px;&quot;&gt;HA&lt;/font&gt;" style="rhombus;whiteSpace=wrap;html=1;shadow=0;rounded=0;perimeterSpacing=0;strokeWidth=1;fillColor=#f5f5f5;fontColor=#333333;strokeColor=#666666;fillStyle=auto;double=1;" parent="WIyWlLk6GJQsqaUBKTNV-1" vertex="1">
          <mxGeometry x="380" y="696" width="86" height="59" as="geometry" />
        </mxCell>
        <mxCell id="cPJrFpIsc6c82qLKrWnZ-31" value="&lt;span style=&quot;font-size: 15px;&quot;&gt;COPIA&lt;/span&gt;" style="rounded=0;whiteSpace=wrap;html=1;fillColor=#f5f5f5;fontColor=#333333;strokeColor=#666666;" parent="WIyWlLk6GJQsqaUBKTNV-1" vertex="1">
          <mxGeometry x="380" y="628" width="120" height="30" as="geometry" />
        </mxCell>
        <mxCell id="cPJrFpIsc6c82qLKrWnZ-32" value="" style="endArrow=none;html=1;rounded=0;entryX=0.5;entryY=1;entryDx=0;entryDy=0;exitX=0.5;exitY=0;exitDx=0;exitDy=0;shape=link;" parent="WIyWlLk6GJQsqaUBKTNV-1" source="cPJrFpIsc6c82qLKrWnZ-30" target="cPJrFpIsc6c82qLKrWnZ-31" edge="1">
          <mxGeometry width="50" height="50" relative="1" as="geometry">
            <mxPoint x="228" y="536" as="sourcePoint" />
            <mxPoint x="278" y="486" as="targetPoint" />
          </mxGeometry>
        </mxCell>
        <mxCell id="cPJrFpIsc6c82qLKrWnZ-33" value="" style="endArrow=none;html=1;rounded=0;exitX=0.5;exitY=0;exitDx=0;exitDy=0;entryX=0.5;entryY=1;entryDx=0;entryDy=0;" parent="WIyWlLk6GJQsqaUBKTNV-1" source="cPJrFpIsc6c82qLKrWnZ-9" target="cPJrFpIsc6c82qLKrWnZ-30" edge="1">
          <mxGeometry width="50" height="50" relative="1" as="geometry">
            <mxPoint x="579" y="612" as="sourcePoint" />
            <mxPoint x="629" y="562" as="targetPoint" />
          </mxGeometry>
        </mxCell>
        <mxCell id="cPJrFpIsc6c82qLKrWnZ-34" value="" style="endArrow=none;html=1;rounded=0;entryX=0.5;entryY=1;entryDx=0;entryDy=0;exitX=0.5;exitY=0;exitDx=0;exitDy=0;" parent="WIyWlLk6GJQsqaUBKTNV-1" source="cPJrFpIsc6c82qLKrWnZ-7" target="cPJrFpIsc6c82qLKrWnZ-27" edge="1">
          <mxGeometry width="50" height="50" relative="1" as="geometry">
            <mxPoint x="614" y="738" as="sourcePoint" />
            <mxPoint x="664" y="688" as="targetPoint" />
          </mxGeometry>
        </mxCell>
        <mxCell id="cPJrFpIsc6c82qLKrWnZ-35" value="&lt;p style=&quot;line-height: 100%;&quot;&gt;&lt;u&gt;&lt;font style=&quot;font-size: 12px;&quot;&gt;ID_media&lt;/font&gt;&lt;/u&gt;&lt;/p&gt;" style="ellipse;whiteSpace=wrap;html=1;" parent="WIyWlLk6GJQsqaUBKTNV-1" vertex="1">
          <mxGeometry x="384" y="880" width="65" height="36" as="geometry" />
        </mxCell>
        <mxCell id="cPJrFpIsc6c82qLKrWnZ-36" value="" style="endArrow=none;html=1;rounded=0;exitX=0.5;exitY=0;exitDx=0;exitDy=0;entryX=0.5;entryY=1;entryDx=0;entryDy=0;" parent="WIyWlLk6GJQsqaUBKTNV-1" source="cPJrFpIsc6c82qLKrWnZ-35" target="cPJrFpIsc6c82qLKrWnZ-9" edge="1">
          <mxGeometry width="50" height="50" relative="1" as="geometry">
            <mxPoint x="393" y="831" as="sourcePoint" />
            <mxPoint x="442" y="795" as="targetPoint" />
          </mxGeometry>
        </mxCell>
        <mxCell id="cPJrFpIsc6c82qLKrWnZ-37" value="&lt;p style=&quot;line-height: 100%;&quot;&gt;&lt;font style=&quot;font-size: 12px;&quot;&gt;&lt;u&gt;ID_copia&lt;/u&gt;&lt;/font&gt;&lt;/p&gt;" style="ellipse;whiteSpace=wrap;html=1;noLabel=0;shadow=0;enumerate=0;treeFolding=0;snapToPoint=0;portConstraintRotation=0;" parent="WIyWlLk6GJQsqaUBKTNV-1" vertex="1">
          <mxGeometry x="552" y="573" width="65" height="36" as="geometry" />
        </mxCell>
        <mxCell id="cPJrFpIsc6c82qLKrWnZ-41" value="" style="endArrow=none;html=1;rounded=0;entryX=0.5;entryY=1;entryDx=0;entryDy=0;exitX=1;exitY=0.5;exitDx=0;exitDy=0;" parent="WIyWlLk6GJQsqaUBKTNV-1" source="cPJrFpIsc6c82qLKrWnZ-31" target="cPJrFpIsc6c82qLKrWnZ-37" edge="1">
          <mxGeometry width="50" height="50" relative="1" as="geometry">
            <mxPoint x="579" y="702" as="sourcePoint" />
            <mxPoint x="629" y="652" as="targetPoint" />
          </mxGeometry>
        </mxCell>
        <mxCell id="cPJrFpIsc6c82qLKrWnZ-47" value="&lt;p style=&quot;line-height: 100%;&quot;&gt;&lt;font style=&quot;font-size: 12px;&quot;&gt;&lt;u&gt;ID_biblioteca&lt;/u&gt;&lt;/font&gt;&lt;/p&gt;" style="ellipse;whiteSpace=wrap;html=1;" parent="WIyWlLk6GJQsqaUBKTNV-1" vertex="1">
          <mxGeometry x="924" y="253" width="87" height="36" as="geometry" />
        </mxCell>
        <mxCell id="cPJrFpIsc6c82qLKrWnZ-48" value="" style="endArrow=none;html=1;rounded=0;entryX=0;entryY=0.5;entryDx=0;entryDy=0;exitX=1;exitY=0.5;exitDx=0;exitDy=0;" parent="WIyWlLk6GJQsqaUBKTNV-1" source="cPJrFpIsc6c82qLKrWnZ-4" target="cPJrFpIsc6c82qLKrWnZ-47" edge="1">
          <mxGeometry width="50" height="50" relative="1" as="geometry">
            <mxPoint x="961" y="313" as="sourcePoint" />
            <mxPoint x="1197" y="356" as="targetPoint" />
          </mxGeometry>
        </mxCell>
        <mxCell id="cPJrFpIsc6c82qLKrWnZ-49" value="&lt;p style=&quot;line-height: 100%;&quot;&gt;&lt;font style=&quot;font-size: 12px;&quot;&gt;&lt;u&gt;ID_evento&lt;/u&gt;&lt;/font&gt;&lt;/p&gt;" style="ellipse;whiteSpace=wrap;html=1;" parent="WIyWlLk6GJQsqaUBKTNV-1" vertex="1">
          <mxGeometry x="1039.5" y="-104" width="65" height="36" as="geometry" />
        </mxCell>
        <mxCell id="cPJrFpIsc6c82qLKrWnZ-50" value="" style="endArrow=none;html=1;rounded=0;entryX=0.5;entryY=1;entryDx=0;entryDy=0;exitX=0.75;exitY=0;exitDx=0;exitDy=0;" parent="WIyWlLk6GJQsqaUBKTNV-1" source="cPJrFpIsc6c82qLKrWnZ-6" target="cPJrFpIsc6c82qLKrWnZ-49" edge="1">
          <mxGeometry width="50" height="50" relative="1" as="geometry">
            <mxPoint x="958.5" y="7" as="sourcePoint" />
            <mxPoint x="1194.5" y="50" as="targetPoint" />
          </mxGeometry>
        </mxCell>
        <mxCell id="cPJrFpIsc6c82qLKrWnZ-54" value="&lt;font style=&quot;font-size: 12px;&quot;&gt;POSSIEDE&lt;/font&gt;" style="rhombus;whiteSpace=wrap;html=1;shadow=0;rounded=0;perimeterSpacing=0;strokeWidth=1;fillColor=#f5f5f5;fontColor=#333333;strokeColor=#666666;fillStyle=auto;double=0;" parent="WIyWlLk6GJQsqaUBKTNV-1" vertex="1">
          <mxGeometry x="493" y="388" width="84" height="59" as="geometry" />
        </mxCell>
        <mxCell id="cPJrFpIsc6c82qLKrWnZ-55" value="" style="endArrow=none;html=1;rounded=0;exitX=0.5;exitY=0;exitDx=0;exitDy=0;entryX=0.5;entryY=1;entryDx=0;entryDy=0;" parent="WIyWlLk6GJQsqaUBKTNV-1" source="cPJrFpIsc6c82qLKrWnZ-31" target="cPJrFpIsc6c82qLKrWnZ-54" edge="1">
          <mxGeometry width="50" height="50" relative="1" as="geometry">
            <mxPoint x="579" y="476" as="sourcePoint" />
            <mxPoint x="629" y="426" as="targetPoint" />
          </mxGeometry>
        </mxCell>
        <mxCell id="cPJrFpIsc6c82qLKrWnZ-56" value="" style="endArrow=none;html=1;rounded=0;entryX=0.25;entryY=1;entryDx=0;entryDy=0;exitX=0.5;exitY=0;exitDx=0;exitDy=0;" parent="WIyWlLk6GJQsqaUBKTNV-1" source="cPJrFpIsc6c82qLKrWnZ-54" target="cPJrFpIsc6c82qLKrWnZ-4" edge="1">
          <mxGeometry width="50" height="50" relative="1" as="geometry">
            <mxPoint x="624" y="456" as="sourcePoint" />
            <mxPoint x="674" y="406" as="targetPoint" />
          </mxGeometry>
        </mxCell>
        <mxCell id="cPJrFpIsc6c82qLKrWnZ-57" value="&lt;font style=&quot;font-size: 12px;&quot;&gt;POSSIEDE&lt;/font&gt;" style="rhombus;whiteSpace=wrap;html=1;shadow=0;rounded=0;perimeterSpacing=0;strokeWidth=1;fillColor=#f5f5f5;fontColor=#333333;strokeColor=#666666;fillStyle=auto;double=0;" parent="WIyWlLk6GJQsqaUBKTNV-1" vertex="1">
          <mxGeometry x="697.5" y="394" width="84" height="59" as="geometry" />
        </mxCell>
        <mxCell id="cPJrFpIsc6c82qLKrWnZ-58" value="" style="endArrow=none;html=1;rounded=0;exitX=0.5;exitY=0;exitDx=0;exitDy=0;entryX=0.5;entryY=1;entryDx=0;entryDy=0;" parent="WIyWlLk6GJQsqaUBKTNV-1" source="cPJrFpIsc6c82qLKrWnZ-28" target="cPJrFpIsc6c82qLKrWnZ-57" edge="1">
          <mxGeometry width="50" height="50" relative="1" as="geometry">
            <mxPoint x="478" y="599" as="sourcePoint" />
            <mxPoint x="684" y="416" as="targetPoint" />
          </mxGeometry>
        </mxCell>
        <mxCell id="cPJrFpIsc6c82qLKrWnZ-59" value="" style="endArrow=none;html=1;rounded=0;entryX=0.5;entryY=1;entryDx=0;entryDy=0;exitX=0.5;exitY=0;exitDx=0;exitDy=0;" parent="WIyWlLk6GJQsqaUBKTNV-1" source="cPJrFpIsc6c82qLKrWnZ-57" target="cPJrFpIsc6c82qLKrWnZ-4" edge="1">
          <mxGeometry width="50" height="50" relative="1" as="geometry">
            <mxPoint x="634" y="466" as="sourcePoint" />
            <mxPoint x="651" y="259" as="targetPoint" />
          </mxGeometry>
        </mxCell>
        <mxCell id="cPJrFpIsc6c82qLKrWnZ-60" value="&lt;font style=&quot;font-size: 12px;&quot;&gt;POSSIEDE&lt;/font&gt;" style="rhombus;whiteSpace=wrap;html=1;shadow=0;rounded=0;perimeterSpacing=0;strokeWidth=1;fillColor=#f5f5f5;fontColor=#333333;strokeColor=#666666;fillStyle=auto;double=0;" parent="WIyWlLk6GJQsqaUBKTNV-1" vertex="1">
          <mxGeometry x="914.5" y="397" width="84" height="59" as="geometry" />
        </mxCell>
        <mxCell id="cPJrFpIsc6c82qLKrWnZ-61" value="" style="endArrow=none;html=1;rounded=0;exitX=0.5;exitY=0;exitDx=0;exitDy=0;entryX=0.5;entryY=1;entryDx=0;entryDy=0;" parent="WIyWlLk6GJQsqaUBKTNV-1" source="cPJrFpIsc6c82qLKrWnZ-25" target="cPJrFpIsc6c82qLKrWnZ-60" edge="1">
          <mxGeometry width="50" height="50" relative="1" as="geometry">
            <mxPoint x="916" y="579" as="sourcePoint" />
            <mxPoint x="1122" y="396" as="targetPoint" />
          </mxGeometry>
        </mxCell>
        <mxCell id="cPJrFpIsc6c82qLKrWnZ-62" value="" style="endArrow=none;html=1;rounded=0;entryX=0.75;entryY=1;entryDx=0;entryDy=0;exitX=0.5;exitY=0;exitDx=0;exitDy=0;" parent="WIyWlLk6GJQsqaUBKTNV-1" source="cPJrFpIsc6c82qLKrWnZ-60" target="cPJrFpIsc6c82qLKrWnZ-4" edge="1">
          <mxGeometry width="50" height="50" relative="1" as="geometry">
            <mxPoint x="1072" y="446" as="sourcePoint" />
            <mxPoint x="1089" y="239" as="targetPoint" />
          </mxGeometry>
        </mxCell>
        <mxCell id="cPJrFpIsc6c82qLKrWnZ-63" value="&lt;p style=&quot;line-height: 100%;&quot;&gt;&lt;font style=&quot;font-size: 12px;&quot;&gt;&lt;u&gt;Inventario&lt;/u&gt;&lt;/font&gt;&lt;/p&gt;" style="ellipse;whiteSpace=wrap;html=1;noLabel=0;shadow=0;enumerate=0;treeFolding=0;snapToPoint=0;portConstraintRotation=0;" parent="WIyWlLk6GJQsqaUBKTNV-1" vertex="1">
          <mxGeometry x="512" y="522" width="65" height="36" as="geometry" />
        </mxCell>
        <mxCell id="cPJrFpIsc6c82qLKrWnZ-64" value="" style="endArrow=none;html=1;rounded=0;entryX=0.5;entryY=1;entryDx=0;entryDy=0;exitX=0;exitY=0;exitDx=0;exitDy=0;" parent="WIyWlLk6GJQsqaUBKTNV-1" source="cPJrFpIsc6c82qLKrWnZ-37" target="cPJrFpIsc6c82qLKrWnZ-63" edge="1">
          <mxGeometry width="50" height="50" relative="1" as="geometry">
            <mxPoint x="544.6978617776508" y="610.1737972499286" as="sourcePoint" />
            <mxPoint x="798" y="643" as="targetPoint" />
          </mxGeometry>
        </mxCell>
        <mxCell id="cPJrFpIsc6c82qLKrWnZ-65" value="&lt;p style=&quot;line-height: 100%;&quot;&gt;&lt;font style=&quot;font-size: 12px;&quot;&gt;&lt;u&gt;Comune&lt;/u&gt;&lt;/font&gt;&lt;/p&gt;" style="ellipse;whiteSpace=wrap;html=1;noLabel=0;shadow=0;enumerate=0;treeFolding=0;snapToPoint=0;portConstraintRotation=0;" parent="WIyWlLk6GJQsqaUBKTNV-1" vertex="1">
          <mxGeometry x="598" y="520" width="65" height="36" as="geometry" />
        </mxCell>
        <mxCell id="cPJrFpIsc6c82qLKrWnZ-66" value="" style="endArrow=none;html=1;rounded=0;entryX=0.5;entryY=1;entryDx=0;entryDy=0;exitX=1;exitY=0;exitDx=0;exitDy=0;" parent="WIyWlLk6GJQsqaUBKTNV-1" source="cPJrFpIsc6c82qLKrWnZ-37" target="cPJrFpIsc6c82qLKrWnZ-65" edge="1">
          <mxGeometry width="50" height="50" relative="1" as="geometry">
            <mxPoint x="652" y="603" as="sourcePoint" />
            <mxPoint x="888" y="646" as="targetPoint" />
          </mxGeometry>
        </mxCell>
        <mxCell id="cPJrFpIsc6c82qLKrWnZ-73" value="&lt;p style=&quot;line-height: 100%;&quot;&gt;&lt;font style=&quot;font-size: 12px;&quot;&gt;&lt;u&gt;ID_copia&lt;/u&gt;&lt;/font&gt;&lt;/p&gt;" style="ellipse;whiteSpace=wrap;html=1;noLabel=0;shadow=0;enumerate=0;treeFolding=0;snapToPoint=0;portConstraintRotation=0;" parent="WIyWlLk6GJQsqaUBKTNV-1" vertex="1">
          <mxGeometry x="841" y="544" width="65" height="36" as="geometry" />
        </mxCell>
        <mxCell id="cPJrFpIsc6c82qLKrWnZ-74" value="" style="endArrow=none;html=1;rounded=0;entryX=0.5;entryY=1;entryDx=0;entryDy=0;exitX=1;exitY=0.5;exitDx=0;exitDy=0;" parent="WIyWlLk6GJQsqaUBKTNV-1" source="cPJrFpIsc6c82qLKrWnZ-28" target="cPJrFpIsc6c82qLKrWnZ-73" edge="1">
          <mxGeometry width="50" height="50" relative="1" as="geometry">
            <mxPoint x="691" y="606" as="sourcePoint" />
            <mxPoint x="927" y="649" as="targetPoint" />
          </mxGeometry>
        </mxCell>
        <mxCell id="cPJrFpIsc6c82qLKrWnZ-75" value="&lt;p style=&quot;line-height: 100%;&quot;&gt;&lt;font style=&quot;font-size: 12px;&quot;&gt;&lt;u&gt;Inventario&lt;/u&gt;&lt;/font&gt;&lt;/p&gt;" style="ellipse;whiteSpace=wrap;html=1;noLabel=0;shadow=0;enumerate=0;treeFolding=0;snapToPoint=0;portConstraintRotation=0;" parent="WIyWlLk6GJQsqaUBKTNV-1" vertex="1">
          <mxGeometry x="795" y="490" width="65" height="36" as="geometry" />
        </mxCell>
        <mxCell id="cPJrFpIsc6c82qLKrWnZ-76" value="" style="endArrow=none;html=1;rounded=0;entryX=0.5;entryY=1;entryDx=0;entryDy=0;exitX=0;exitY=0;exitDx=0;exitDy=0;" parent="WIyWlLk6GJQsqaUBKTNV-1" source="cPJrFpIsc6c82qLKrWnZ-73" target="cPJrFpIsc6c82qLKrWnZ-75" edge="1">
          <mxGeometry width="50" height="50" relative="1" as="geometry">
            <mxPoint x="848.6978617776508" y="587.1737972499286" as="sourcePoint" />
            <mxPoint x="1102" y="620" as="targetPoint" />
          </mxGeometry>
        </mxCell>
        <mxCell id="cPJrFpIsc6c82qLKrWnZ-77" value="&lt;p style=&quot;line-height: 100%;&quot;&gt;&lt;font style=&quot;font-size: 12px;&quot;&gt;&lt;u&gt;Comune&lt;/u&gt;&lt;/font&gt;&lt;/p&gt;" style="ellipse;whiteSpace=wrap;html=1;noLabel=0;shadow=0;enumerate=0;treeFolding=0;snapToPoint=0;portConstraintRotation=0;" parent="WIyWlLk6GJQsqaUBKTNV-1" vertex="1">
          <mxGeometry x="885" y="493" width="65" height="36" as="geometry" />
        </mxCell>
        <mxCell id="cPJrFpIsc6c82qLKrWnZ-78" value="" style="endArrow=none;html=1;rounded=0;entryX=0.5;entryY=1;entryDx=0;entryDy=0;exitX=1;exitY=0;exitDx=0;exitDy=0;" parent="WIyWlLk6GJQsqaUBKTNV-1" source="cPJrFpIsc6c82qLKrWnZ-73" target="cPJrFpIsc6c82qLKrWnZ-77" edge="1">
          <mxGeometry width="50" height="50" relative="1" as="geometry">
            <mxPoint x="956" y="580" as="sourcePoint" />
            <mxPoint x="1192" y="623" as="targetPoint" />
          </mxGeometry>
        </mxCell>
        <mxCell id="cPJrFpIsc6c82qLKrWnZ-79" value="&lt;p style=&quot;line-height: 100%;&quot;&gt;&lt;font style=&quot;font-size: 12px;&quot;&gt;&lt;u&gt;ID_copia&lt;/u&gt;&lt;/font&gt;&lt;/p&gt;" style="ellipse;whiteSpace=wrap;html=1;noLabel=0;shadow=0;enumerate=0;treeFolding=0;snapToPoint=0;portConstraintRotation=0;" parent="WIyWlLk6GJQsqaUBKTNV-1" vertex="1">
          <mxGeometry x="1236" y="547" width="65" height="36" as="geometry" />
        </mxCell>
        <mxCell id="cPJrFpIsc6c82qLKrWnZ-80" value="" style="endArrow=none;html=1;rounded=0;entryX=0;entryY=1;entryDx=0;entryDy=0;exitX=1;exitY=0.5;exitDx=0;exitDy=0;" parent="WIyWlLk6GJQsqaUBKTNV-1" source="cPJrFpIsc6c82qLKrWnZ-25" target="cPJrFpIsc6c82qLKrWnZ-79" edge="1">
          <mxGeometry width="50" height="50" relative="1" as="geometry">
            <mxPoint x="1055" y="614" as="sourcePoint" />
            <mxPoint x="1237.5" y="589.0000000000005" as="targetPoint" />
          </mxGeometry>
        </mxCell>
        <mxCell id="cPJrFpIsc6c82qLKrWnZ-81" value="&lt;p style=&quot;line-height: 100%;&quot;&gt;&lt;font style=&quot;font-size: 12px;&quot;&gt;&lt;u&gt;Inventario&lt;/u&gt;&lt;/font&gt;&lt;/p&gt;" style="ellipse;whiteSpace=wrap;html=1;noLabel=0;shadow=0;enumerate=0;treeFolding=0;snapToPoint=0;portConstraintRotation=0;" parent="WIyWlLk6GJQsqaUBKTNV-1" vertex="1">
          <mxGeometry x="1190" y="493" width="65" height="36" as="geometry" />
        </mxCell>
        <mxCell id="cPJrFpIsc6c82qLKrWnZ-82" value="" style="endArrow=none;html=1;rounded=0;entryX=0.5;entryY=1;entryDx=0;entryDy=0;exitX=0;exitY=0;exitDx=0;exitDy=0;" parent="WIyWlLk6GJQsqaUBKTNV-1" source="cPJrFpIsc6c82qLKrWnZ-79" target="cPJrFpIsc6c82qLKrWnZ-81" edge="1">
          <mxGeometry width="50" height="50" relative="1" as="geometry">
            <mxPoint x="1243.6978617776508" y="590.1737972499286" as="sourcePoint" />
            <mxPoint x="1497" y="623" as="targetPoint" />
          </mxGeometry>
        </mxCell>
        <mxCell id="cPJrFpIsc6c82qLKrWnZ-83" value="&lt;p style=&quot;line-height: 100%;&quot;&gt;&lt;font style=&quot;font-size: 12px;&quot;&gt;&lt;u&gt;Comune&lt;/u&gt;&lt;/font&gt;&lt;/p&gt;" style="ellipse;whiteSpace=wrap;html=1;noLabel=0;shadow=0;enumerate=0;treeFolding=0;snapToPoint=0;portConstraintRotation=0;" parent="WIyWlLk6GJQsqaUBKTNV-1" vertex="1">
          <mxGeometry x="1280" y="496" width="65" height="36" as="geometry" />
        </mxCell>
        <mxCell id="cPJrFpIsc6c82qLKrWnZ-84" value="" style="endArrow=none;html=1;rounded=0;entryX=0.5;entryY=1;entryDx=0;entryDy=0;exitX=1;exitY=0;exitDx=0;exitDy=0;" parent="WIyWlLk6GJQsqaUBKTNV-1" source="cPJrFpIsc6c82qLKrWnZ-79" target="cPJrFpIsc6c82qLKrWnZ-83" edge="1">
          <mxGeometry width="50" height="50" relative="1" as="geometry">
            <mxPoint x="1351" y="583" as="sourcePoint" />
            <mxPoint x="1587" y="626" as="targetPoint" />
          </mxGeometry>
        </mxCell>
        <mxCell id="cPJrFpIsc6c82qLKrWnZ-86" value="" style="endArrow=none;html=1;rounded=0;exitX=0.75;exitY=1;exitDx=0;exitDy=0;entryX=0.5;entryY=0;entryDx=0;entryDy=0;" parent="WIyWlLk6GJQsqaUBKTNV-1" source="cPJrFpIsc6c82qLKrWnZ-5" target="cPJrFpIsc6c82qLKrWnZ-11" edge="1">
          <mxGeometry width="50" height="50" relative="1" as="geometry">
            <mxPoint x="624" y="55" as="sourcePoint" />
            <mxPoint x="674" y="5" as="targetPoint" />
          </mxGeometry>
        </mxCell>
        <mxCell id="cPJrFpIsc6c82qLKrWnZ-87" value="" style="endArrow=none;html=1;rounded=0;entryX=1;entryY=0.5;entryDx=0;entryDy=0;exitX=0;exitY=0.5;exitDx=0;exitDy=0;" parent="WIyWlLk6GJQsqaUBKTNV-1" source="cPJrFpIsc6c82qLKrWnZ-16" target="cPJrFpIsc6c82qLKrWnZ-5" edge="1">
          <mxGeometry width="50" height="50" relative="1" as="geometry">
            <mxPoint x="624" y="55" as="sourcePoint" />
            <mxPoint x="674" y="5" as="targetPoint" />
          </mxGeometry>
        </mxCell>
        <mxCell id="cPJrFpIsc6c82qLKrWnZ-89" value="&lt;font style=&quot;font-size: 12px;&quot;&gt;OSPITA&lt;/font&gt;" style="rhombus;whiteSpace=wrap;html=1;shadow=0;rounded=0;perimeterSpacing=0;strokeWidth=1;fillColor=#f5f5f5;fontColor=#333333;strokeColor=#666666;fillStyle=auto;double=0;" parent="WIyWlLk6GJQsqaUBKTNV-1" vertex="1">
          <mxGeometry x="893.5" y="92" width="84" height="59" as="geometry" />
        </mxCell>
        <mxCell id="cPJrFpIsc6c82qLKrWnZ-90" value="" style="endArrow=none;html=1;rounded=0;exitX=0.75;exitY=0;exitDx=0;exitDy=0;entryX=0.5;entryY=1;entryDx=0;entryDy=0;" parent="WIyWlLk6GJQsqaUBKTNV-1" source="cPJrFpIsc6c82qLKrWnZ-4" target="cPJrFpIsc6c82qLKrWnZ-89" edge="1">
          <mxGeometry width="50" height="50" relative="1" as="geometry">
            <mxPoint x="921.5" y="245" as="sourcePoint" />
            <mxPoint x="849.5" y="64" as="targetPoint" />
          </mxGeometry>
        </mxCell>
        <mxCell id="cPJrFpIsc6c82qLKrWnZ-91" value="" style="endArrow=none;html=1;rounded=0;entryX=0.5;entryY=1;entryDx=0;entryDy=0;exitX=0.5;exitY=0;exitDx=0;exitDy=0;" parent="WIyWlLk6GJQsqaUBKTNV-1" source="cPJrFpIsc6c82qLKrWnZ-89" target="cPJrFpIsc6c82qLKrWnZ-6" edge="1">
          <mxGeometry width="50" height="50" relative="1" as="geometry">
            <mxPoint x="799.5" y="114" as="sourcePoint" />
            <mxPoint x="882.5" y="-75" as="targetPoint" />
          </mxGeometry>
        </mxCell>
        <mxCell id="cPJrFpIsc6c82qLKrWnZ-92" value="&lt;font style=&quot;font-size: 12px;&quot;&gt;LAVORA A&lt;/font&gt;" style="rhombus;whiteSpace=wrap;html=1;shadow=0;rounded=0;perimeterSpacing=0;strokeWidth=1;fillColor=#f5f5f5;fontColor=#333333;strokeColor=#666666;fillStyle=auto;double=0;" parent="WIyWlLk6GJQsqaUBKTNV-1" vertex="1">
          <mxGeometry x="732" y="-12" width="84" height="59" as="geometry" />
        </mxCell>
        <mxCell id="cPJrFpIsc6c82qLKrWnZ-93" value="" style="endArrow=none;html=1;rounded=0;exitX=0.608;exitY=0.042;exitDx=0;exitDy=0;entryX=0.5;entryY=1;entryDx=0;entryDy=0;exitPerimeter=0;" parent="WIyWlLk6GJQsqaUBKTNV-1" source="cPJrFpIsc6c82qLKrWnZ-4" target="cPJrFpIsc6c82qLKrWnZ-92" edge="1">
          <mxGeometry width="50" height="50" relative="1" as="geometry">
            <mxPoint x="752" y="282" as="sourcePoint" />
            <mxPoint x="680" y="101" as="targetPoint" />
          </mxGeometry>
        </mxCell>
        <mxCell id="cPJrFpIsc6c82qLKrWnZ-94" value="" style="endArrow=none;html=1;rounded=0;entryX=0.5;entryY=1;entryDx=0;entryDy=0;exitX=0.5;exitY=0;exitDx=0;exitDy=0;" parent="WIyWlLk6GJQsqaUBKTNV-1" source="cPJrFpIsc6c82qLKrWnZ-92" target="cPJrFpIsc6c82qLKrWnZ-16" edge="1">
          <mxGeometry width="50" height="50" relative="1" as="geometry">
            <mxPoint x="630" y="151" as="sourcePoint" />
            <mxPoint x="713" y="-38" as="targetPoint" />
          </mxGeometry>
        </mxCell>
        <mxCell id="cPJrFpIsc6c82qLKrWnZ-95" value="&lt;font style=&quot;font-size: 12px;&quot;&gt;REGISTRATO A&lt;/font&gt;" style="rhombus;whiteSpace=wrap;html=1;shadow=0;rounded=0;perimeterSpacing=0;strokeWidth=1;fillColor=#f5f5f5;fontColor=#333333;strokeColor=#666666;fillStyle=auto;double=0;" parent="WIyWlLk6GJQsqaUBKTNV-1" vertex="1">
          <mxGeometry x="485" y="64" width="131" height="59" as="geometry" />
        </mxCell>
        <mxCell id="cPJrFpIsc6c82qLKrWnZ-96" value="" style="endArrow=none;html=1;rounded=0;exitX=0.25;exitY=0;exitDx=0;exitDy=0;entryX=0.5;entryY=1;entryDx=0;entryDy=0;" parent="WIyWlLk6GJQsqaUBKTNV-1" source="cPJrFpIsc6c82qLKrWnZ-4" target="cPJrFpIsc6c82qLKrWnZ-95" edge="1">
          <mxGeometry width="50" height="50" relative="1" as="geometry">
            <mxPoint x="583.5" y="339" as="sourcePoint" />
            <mxPoint x="511.5" y="158" as="targetPoint" />
          </mxGeometry>
        </mxCell>
        <mxCell id="cPJrFpIsc6c82qLKrWnZ-97" value="" style="endArrow=none;html=1;rounded=0;exitX=0.5;exitY=0;exitDx=0;exitDy=0;" parent="WIyWlLk6GJQsqaUBKTNV-1" source="cPJrFpIsc6c82qLKrWnZ-95" target="cPJrFpIsc6c82qLKrWnZ-5" edge="1">
          <mxGeometry width="50" height="50" relative="1" as="geometry">
            <mxPoint x="461.5" y="208" as="sourcePoint" />
            <mxPoint x="359" y="50" as="targetPoint" />
          </mxGeometry>
        </mxCell>
        <mxCell id="cPJrFpIsc6c82qLKrWnZ-101" value="&lt;p style=&quot;line-height: 100%;&quot;&gt;&lt;font style=&quot;font-size: 12px;&quot;&gt;Indirizzo&lt;/font&gt;&lt;/p&gt;" style="ellipse;whiteSpace=wrap;html=1;" parent="WIyWlLk6GJQsqaUBKTNV-1" vertex="1">
          <mxGeometry x="931" y="201" width="78" height="36" as="geometry" />
        </mxCell>
        <mxCell id="cPJrFpIsc6c82qLKrWnZ-102" value="" style="endArrow=none;html=1;rounded=0;entryX=0;entryY=0.5;entryDx=0;entryDy=0;exitX=1;exitY=0;exitDx=0;exitDy=0;" parent="WIyWlLk6GJQsqaUBKTNV-1" source="cPJrFpIsc6c82qLKrWnZ-4" target="cPJrFpIsc6c82qLKrWnZ-101" edge="1">
          <mxGeometry width="50" height="50" relative="1" as="geometry">
            <mxPoint x="771" y="222" as="sourcePoint" />
            <mxPoint x="1204" y="304" as="targetPoint" />
          </mxGeometry>
        </mxCell>
        <mxCell id="cPJrFpIsc6c82qLKrWnZ-103" value="&lt;p style=&quot;line-height: 100%;&quot;&gt;&lt;font style=&quot;font-size: 12px;&quot;&gt;Formato&lt;/font&gt;&lt;/p&gt;" style="ellipse;whiteSpace=wrap;html=1;" parent="WIyWlLk6GJQsqaUBKTNV-1" vertex="1">
          <mxGeometry x="472" y="878" width="65" height="36" as="geometry" />
        </mxCell>
        <mxCell id="cPJrFpIsc6c82qLKrWnZ-104" value="" style="endArrow=none;html=1;rounded=0;exitX=0.5;exitY=0;exitDx=0;exitDy=0;entryX=0.75;entryY=1;entryDx=0;entryDy=0;" parent="WIyWlLk6GJQsqaUBKTNV-1" source="cPJrFpIsc6c82qLKrWnZ-103" target="cPJrFpIsc6c82qLKrWnZ-9" edge="1">
          <mxGeometry width="50" height="50" relative="1" as="geometry">
            <mxPoint x="481" y="829" as="sourcePoint" />
            <mxPoint x="508" y="836" as="targetPoint" />
          </mxGeometry>
        </mxCell>
        <mxCell id="cPJrFpIsc6c82qLKrWnZ-105" value="&lt;p style=&quot;line-height: 100%;&quot;&gt;&lt;font style=&quot;font-size: 12px;&quot;&gt;Autore&lt;/font&gt;&lt;/p&gt;" style="ellipse;whiteSpace=wrap;html=1;" parent="WIyWlLk6GJQsqaUBKTNV-1" vertex="1">
          <mxGeometry x="1054" y="858" width="65" height="36" as="geometry" />
        </mxCell>
        <mxCell id="cPJrFpIsc6c82qLKrWnZ-106" value="" style="endArrow=none;html=1;rounded=0;exitX=0.5;exitY=0;exitDx=0;exitDy=0;entryX=0.25;entryY=1;entryDx=0;entryDy=0;" parent="WIyWlLk6GJQsqaUBKTNV-1" source="cPJrFpIsc6c82qLKrWnZ-105" target="cPJrFpIsc6c82qLKrWnZ-8" edge="1">
          <mxGeometry width="50" height="50" relative="1" as="geometry">
            <mxPoint x="992.5" y="815" as="sourcePoint" />
            <mxPoint x="1016" y="807" as="targetPoint" />
          </mxGeometry>
        </mxCell>
        <mxCell id="cPJrFpIsc6c82qLKrWnZ-107" value="&lt;p style=&quot;line-height: 100%;&quot;&gt;&lt;font style=&quot;font-size: 12px;&quot;&gt;Cod_Dewey&lt;/font&gt;&lt;/p&gt;" style="ellipse;whiteSpace=wrap;html=1;" parent="WIyWlLk6GJQsqaUBKTNV-1" vertex="1">
          <mxGeometry x="1212" y="858" width="78" height="36" as="geometry" />
        </mxCell>
        <mxCell id="cPJrFpIsc6c82qLKrWnZ-108" value="" style="endArrow=none;html=1;rounded=0;exitX=0.5;exitY=0;exitDx=0;exitDy=0;entryX=0.75;entryY=1;entryDx=0;entryDy=0;" parent="WIyWlLk6GJQsqaUBKTNV-1" source="cPJrFpIsc6c82qLKrWnZ-107" target="cPJrFpIsc6c82qLKrWnZ-8" edge="1">
          <mxGeometry width="50" height="50" relative="1" as="geometry">
            <mxPoint x="1221" y="809" as="sourcePoint" />
            <mxPoint x="1190" y="818" as="targetPoint" />
          </mxGeometry>
        </mxCell>
        <mxCell id="cPJrFpIsc6c82qLKrWnZ-109" value="&lt;p style=&quot;line-height: 100%;&quot;&gt;&lt;font style=&quot;font-size: 12px;&quot;&gt;&lt;u&gt;Cod_fiscale&lt;/u&gt;&lt;/font&gt;&lt;/p&gt;" style="ellipse;whiteSpace=wrap;html=1;" parent="WIyWlLk6GJQsqaUBKTNV-1" vertex="1">
          <mxGeometry x="536.5" y="-323" width="76" height="36" as="geometry" />
        </mxCell>
        <mxCell id="cPJrFpIsc6c82qLKrWnZ-110" value="" style="endArrow=none;html=1;rounded=0;entryX=0;entryY=1;entryDx=0;entryDy=0;exitX=0.875;exitY=-0.025;exitDx=0;exitDy=0;exitPerimeter=0;" parent="WIyWlLk6GJQsqaUBKTNV-1" source="cPJrFpIsc6c82qLKrWnZ-5" target="cPJrFpIsc6c82qLKrWnZ-109" edge="1">
          <mxGeometry width="50" height="50" relative="1" as="geometry">
            <mxPoint x="472" y="-218" as="sourcePoint" />
            <mxPoint x="733.5" y="-187" as="targetPoint" />
          </mxGeometry>
        </mxCell>
        <mxCell id="cPJrFpIsc6c82qLKrWnZ-111" value="&lt;p style=&quot;line-height: 100%;&quot;&gt;&lt;font style=&quot;font-size: 12px;&quot;&gt;Nome&lt;/font&gt;&lt;/p&gt;" style="ellipse;whiteSpace=wrap;html=1;" parent="WIyWlLk6GJQsqaUBKTNV-1" vertex="1">
          <mxGeometry x="466" y="-367" width="65" height="36" as="geometry" />
        </mxCell>
        <mxCell id="cPJrFpIsc6c82qLKrWnZ-112" value="" style="endArrow=none;html=1;rounded=0;entryX=0.5;entryY=1;entryDx=0;entryDy=0;exitX=0.75;exitY=0;exitDx=0;exitDy=0;" parent="WIyWlLk6GJQsqaUBKTNV-1" source="cPJrFpIsc6c82qLKrWnZ-5" target="cPJrFpIsc6c82qLKrWnZ-111" edge="1">
          <mxGeometry width="50" height="50" relative="1" as="geometry">
            <mxPoint x="479" y="-200.9999999999999" as="sourcePoint" />
            <mxPoint x="656" y="-188" as="targetPoint" />
          </mxGeometry>
        </mxCell>
        <mxCell id="cPJrFpIsc6c82qLKrWnZ-113" value="&lt;p style=&quot;line-height: 100%;&quot;&gt;&lt;font style=&quot;font-size: 12px;&quot;&gt;Data_nascita&lt;/font&gt;&lt;/p&gt;" style="ellipse;whiteSpace=wrap;html=1;" parent="WIyWlLk6GJQsqaUBKTNV-1" vertex="1">
          <mxGeometry x="370" y="-389" width="85" height="36" as="geometry" />
        </mxCell>
        <mxCell id="cPJrFpIsc6c82qLKrWnZ-114" value="" style="endArrow=none;html=1;rounded=0;entryX=0.5;entryY=1;entryDx=0;entryDy=0;exitX=0.65;exitY=0.008;exitDx=0;exitDy=0;exitPerimeter=0;" parent="WIyWlLk6GJQsqaUBKTNV-1" source="cPJrFpIsc6c82qLKrWnZ-5" target="cPJrFpIsc6c82qLKrWnZ-113" edge="1">
          <mxGeometry width="50" height="50" relative="1" as="geometry">
            <mxPoint x="425.5" y="-210" as="sourcePoint" />
            <mxPoint x="574.5" y="-195" as="targetPoint" />
          </mxGeometry>
        </mxCell>
        <mxCell id="cPJrFpIsc6c82qLKrWnZ-115" value="&lt;p style=&quot;line-height: 100%;&quot;&gt;&lt;font style=&quot;font-size: 12px;&quot;&gt;Indirizzo&lt;/font&gt;&lt;/p&gt;" style="ellipse;whiteSpace=wrap;html=1;" parent="WIyWlLk6GJQsqaUBKTNV-1" vertex="1">
          <mxGeometry x="318" y="-326" width="65" height="36" as="geometry" />
        </mxCell>
        <mxCell id="cPJrFpIsc6c82qLKrWnZ-116" value="" style="endArrow=none;html=1;rounded=0;entryX=1;entryY=1;entryDx=0;entryDy=0;exitX=0.25;exitY=0;exitDx=0;exitDy=0;" parent="WIyWlLk6GJQsqaUBKTNV-1" source="cPJrFpIsc6c82qLKrWnZ-5" target="cPJrFpIsc6c82qLKrWnZ-115" edge="1">
          <mxGeometry width="50" height="50" relative="1" as="geometry">
            <mxPoint x="400" y="-202" as="sourcePoint" />
            <mxPoint x="549" y="-187" as="targetPoint" />
          </mxGeometry>
        </mxCell>
        <mxCell id="cPJrFpIsc6c82qLKrWnZ-117" value="&lt;p style=&quot;line-height: 100%;&quot;&gt;&lt;font style=&quot;font-size: 12px;&quot;&gt;Nome_batt&lt;/font&gt;&lt;/p&gt;" style="ellipse;whiteSpace=wrap;html=1;" parent="WIyWlLk6GJQsqaUBKTNV-1" vertex="1">
          <mxGeometry x="431.5" y="-453" width="70.5" height="36" as="geometry" />
        </mxCell>
        <mxCell id="cPJrFpIsc6c82qLKrWnZ-118" value="" style="endArrow=none;html=1;rounded=0;entryX=0.5;entryY=1;entryDx=0;entryDy=0;exitX=0;exitY=0;exitDx=0;exitDy=0;" parent="WIyWlLk6GJQsqaUBKTNV-1" source="cPJrFpIsc6c82qLKrWnZ-111" target="cPJrFpIsc6c82qLKrWnZ-117" edge="1">
          <mxGeometry width="50" height="50" relative="1" as="geometry">
            <mxPoint x="537" y="-345" as="sourcePoint" />
            <mxPoint x="686" y="-330" as="targetPoint" />
          </mxGeometry>
        </mxCell>
        <mxCell id="cPJrFpIsc6c82qLKrWnZ-119" value="&lt;p style=&quot;line-height: 100%;&quot;&gt;&lt;font style=&quot;font-size: 12px;&quot;&gt;Cognome&lt;/font&gt;&lt;/p&gt;" style="ellipse;whiteSpace=wrap;html=1;" parent="WIyWlLk6GJQsqaUBKTNV-1" vertex="1">
          <mxGeometry x="542" y="-448" width="65" height="36" as="geometry" />
        </mxCell>
        <mxCell id="cPJrFpIsc6c82qLKrWnZ-120" value="" style="endArrow=none;html=1;rounded=0;entryX=0.5;entryY=1;entryDx=0;entryDy=0;exitX=1;exitY=0;exitDx=0;exitDy=0;" parent="WIyWlLk6GJQsqaUBKTNV-1" source="cPJrFpIsc6c82qLKrWnZ-111" target="cPJrFpIsc6c82qLKrWnZ-119" edge="1">
          <mxGeometry width="50" height="50" relative="1" as="geometry">
            <mxPoint x="633.25" y="-349" as="sourcePoint" />
            <mxPoint x="782.25" y="-334" as="targetPoint" />
          </mxGeometry>
        </mxCell>
        <mxCell id="cPJrFpIsc6c82qLKrWnZ-121" value="&lt;p style=&quot;line-height: 100%;&quot;&gt;&lt;font style=&quot;font-size: 12px;&quot;&gt;CAP&lt;/font&gt;&lt;/p&gt;" style="ellipse;whiteSpace=wrap;html=1;" parent="WIyWlLk6GJQsqaUBKTNV-1" vertex="1">
          <mxGeometry x="283" y="-410" width="65" height="36" as="geometry" />
        </mxCell>
        <mxCell id="cPJrFpIsc6c82qLKrWnZ-122" value="" style="endArrow=none;html=1;rounded=0;entryX=0.5;entryY=1;entryDx=0;entryDy=0;" parent="WIyWlLk6GJQsqaUBKTNV-1" source="cPJrFpIsc6c82qLKrWnZ-115" target="cPJrFpIsc6c82qLKrWnZ-121" edge="1">
          <mxGeometry width="50" height="50" relative="1" as="geometry">
            <mxPoint x="403.25" y="-329" as="sourcePoint" />
            <mxPoint x="552.25" y="-314" as="targetPoint" />
          </mxGeometry>
        </mxCell>
        <mxCell id="cPJrFpIsc6c82qLKrWnZ-123" value="&lt;p style=&quot;line-height: 100%;&quot;&gt;&lt;font style=&quot;font-size: 12px;&quot;&gt;Domicilio&lt;/font&gt;&lt;/p&gt;" style="ellipse;whiteSpace=wrap;html=1;" parent="WIyWlLk6GJQsqaUBKTNV-1" vertex="1">
          <mxGeometry x="200" y="-384" width="65" height="36" as="geometry" />
        </mxCell>
        <mxCell id="cPJrFpIsc6c82qLKrWnZ-124" value="" style="endArrow=none;html=1;rounded=0;entryX=1;entryY=1;entryDx=0;entryDy=0;exitX=0;exitY=0;exitDx=0;exitDy=0;" parent="WIyWlLk6GJQsqaUBKTNV-1" source="cPJrFpIsc6c82qLKrWnZ-115" target="cPJrFpIsc6c82qLKrWnZ-123" edge="1">
          <mxGeometry width="50" height="50" relative="1" as="geometry">
            <mxPoint x="337.00000000000136" y="-289.9999999999998" as="sourcePoint" />
            <mxPoint x="464.5" y="-267" as="targetPoint" />
          </mxGeometry>
        </mxCell>
        <mxCell id="cPJrFpIsc6c82qLKrWnZ-128" value="&lt;p style=&quot;line-height: 100%;&quot;&gt;N_telefono&lt;/p&gt;" style="ellipse;whiteSpace=wrap;html=1;" parent="WIyWlLk6GJQsqaUBKTNV-1" vertex="1">
          <mxGeometry x="232" y="-287" width="71" height="36" as="geometry" />
        </mxCell>
        <mxCell id="cPJrFpIsc6c82qLKrWnZ-129" value="" style="endArrow=none;html=1;rounded=0;entryX=1;entryY=0.5;entryDx=0;entryDy=0;exitX=0;exitY=0.25;exitDx=0;exitDy=0;" parent="WIyWlLk6GJQsqaUBKTNV-1" source="cPJrFpIsc6c82qLKrWnZ-5" target="cPJrFpIsc6c82qLKrWnZ-128" edge="1">
          <mxGeometry width="50" height="50" relative="1" as="geometry">
            <mxPoint x="340" y="-201.5" as="sourcePoint" />
            <mxPoint x="467" y="-135.5" as="targetPoint" />
          </mxGeometry>
        </mxCell>
        <mxCell id="cPJrFpIsc6c82qLKrWnZ-130" value="&lt;p style=&quot;line-height: 100%;&quot;&gt;&lt;font style=&quot;font-size: 12px;&quot;&gt;Email&lt;/font&gt;&lt;/p&gt;" style="ellipse;whiteSpace=wrap;html=1;" parent="WIyWlLk6GJQsqaUBKTNV-1" vertex="1">
          <mxGeometry x="246" y="-231" width="65" height="36" as="geometry" />
        </mxCell>
        <mxCell id="cPJrFpIsc6c82qLKrWnZ-131" value="" style="endArrow=none;html=1;rounded=0;entryX=1;entryY=0.5;entryDx=0;entryDy=0;exitX=0;exitY=0.75;exitDx=0;exitDy=0;" parent="WIyWlLk6GJQsqaUBKTNV-1" source="cPJrFpIsc6c82qLKrWnZ-5" target="cPJrFpIsc6c82qLKrWnZ-130" edge="1">
          <mxGeometry width="50" height="50" relative="1" as="geometry">
            <mxPoint x="354" y="-142" as="sourcePoint" />
            <mxPoint x="481" y="-76" as="targetPoint" />
          </mxGeometry>
        </mxCell>
        <mxCell id="cPJrFpIsc6c82qLKrWnZ-132" value="&lt;p style=&quot;line-height: 100%;&quot;&gt;Stato&lt;/p&gt;" style="ellipse;whiteSpace=wrap;html=1;" parent="WIyWlLk6GJQsqaUBKTNV-1" vertex="1">
          <mxGeometry x="1225" y="658" width="65" height="36" as="geometry" />
        </mxCell>
        <mxCell id="cPJrFpIsc6c82qLKrWnZ-133" value="" style="endArrow=none;html=1;rounded=0;exitX=0;exitY=0;exitDx=0;exitDy=0;entryX=1;entryY=1;entryDx=0;entryDy=0;" parent="WIyWlLk6GJQsqaUBKTNV-1" source="cPJrFpIsc6c82qLKrWnZ-132" target="cPJrFpIsc6c82qLKrWnZ-25" edge="1">
          <mxGeometry width="50" height="50" relative="1" as="geometry">
            <mxPoint x="1233.5" y="669" as="sourcePoint" />
            <mxPoint x="1139" y="617" as="targetPoint" />
          </mxGeometry>
        </mxCell>
        <mxCell id="cPJrFpIsc6c82qLKrWnZ-134" value="&lt;p style=&quot;line-height: 100%;&quot;&gt;Stato&lt;/p&gt;" style="ellipse;whiteSpace=wrap;html=1;" parent="WIyWlLk6GJQsqaUBKTNV-1" vertex="1">
          <mxGeometry x="856" y="655" width="65" height="36" as="geometry" />
        </mxCell>
        <mxCell id="cPJrFpIsc6c82qLKrWnZ-135" value="" style="endArrow=none;html=1;rounded=0;exitX=0.5;exitY=0;exitDx=0;exitDy=0;entryX=1;entryY=1;entryDx=0;entryDy=0;" parent="WIyWlLk6GJQsqaUBKTNV-1" source="cPJrFpIsc6c82qLKrWnZ-134" target="cPJrFpIsc6c82qLKrWnZ-28" edge="1">
          <mxGeometry width="50" height="50" relative="1" as="geometry">
            <mxPoint x="866" y="634.5" as="sourcePoint" />
            <mxPoint x="779" y="631" as="targetPoint" />
          </mxGeometry>
        </mxCell>
        <mxCell id="cPJrFpIsc6c82qLKrWnZ-136" value="&lt;p style=&quot;line-height: 100%;&quot;&gt;Stato&lt;/p&gt;" style="ellipse;whiteSpace=wrap;html=1;" parent="WIyWlLk6GJQsqaUBKTNV-1" vertex="1">
          <mxGeometry x="518" y="696" width="65" height="36" as="geometry" />
        </mxCell>
        <mxCell id="cPJrFpIsc6c82qLKrWnZ-137" value="" style="endArrow=none;html=1;rounded=0;exitX=0.5;exitY=0;exitDx=0;exitDy=0;entryX=1;entryY=1;entryDx=0;entryDy=0;" parent="WIyWlLk6GJQsqaUBKTNV-1" source="cPJrFpIsc6c82qLKrWnZ-136" target="cPJrFpIsc6c82qLKrWnZ-31" edge="1">
          <mxGeometry width="50" height="50" relative="1" as="geometry">
            <mxPoint x="578" y="655.5" as="sourcePoint" />
            <mxPoint x="538" y="657" as="targetPoint" />
          </mxGeometry>
        </mxCell>
        <mxCell id="kuhGH8qiXDGs2xV2Qm3V-5" value="PRENDE IN PRESTITO" style="rhombus;whiteSpace=wrap;html=1;shadow=0;rounded=0;perimeterSpacing=0;strokeWidth=1;fillColor=#f5f5f5;fontColor=#333333;strokeColor=#666666;fillStyle=auto;double=0;" vertex="1" parent="WIyWlLk6GJQsqaUBKTNV-1">
          <mxGeometry x="361.75" y="161" width="109.5" height="72" as="geometry" />
        </mxCell>
        <mxCell id="kuhGH8qiXDGs2xV2Qm3V-6" value="" style="endArrow=none;html=1;rounded=0;exitX=0.5;exitY=0;exitDx=0;exitDy=0;entryX=0.25;entryY=1;entryDx=0;entryDy=0;" edge="1" parent="WIyWlLk6GJQsqaUBKTNV-1" source="kuhGH8qiXDGs2xV2Qm3V-5" target="cPJrFpIsc6c82qLKrWnZ-5">
          <mxGeometry width="50" height="50" relative="1" as="geometry">
            <mxPoint x="250.5" y="292" as="sourcePoint" />
            <mxPoint x="252" y="-122" as="targetPoint" />
          </mxGeometry>
        </mxCell>
        <mxCell id="kuhGH8qiXDGs2xV2Qm3V-7" value="" style="endArrow=none;html=1;rounded=0;entryX=0.5;entryY=1;entryDx=0;entryDy=0;exitX=0.25;exitY=0;exitDx=0;exitDy=0;" edge="1" parent="WIyWlLk6GJQsqaUBKTNV-1" source="cPJrFpIsc6c82qLKrWnZ-31" target="kuhGH8qiXDGs2xV2Qm3V-5">
          <mxGeometry width="50" height="50" relative="1" as="geometry">
            <mxPoint x="355" y="289" as="sourcePoint" />
            <mxPoint x="405" y="239" as="targetPoint" />
          </mxGeometry>
        </mxCell>
        <mxCell id="kuhGH8qiXDGs2xV2Qm3V-9" value="&lt;font style=&quot;font-size: 12px;&quot;&gt;PRENDE IN PRESTITO&lt;/font&gt;" style="rhombus;whiteSpace=wrap;html=1;shadow=0;rounded=0;perimeterSpacing=0;strokeWidth=1;fillColor=#f5f5f5;fontColor=#333333;strokeColor=#666666;fillStyle=auto;double=0;" vertex="1" parent="WIyWlLk6GJQsqaUBKTNV-1">
          <mxGeometry x="35" y="445" width="105" height="92.5" as="geometry" />
        </mxCell>
        <mxCell id="kuhGH8qiXDGs2xV2Qm3V-10" value="" style="endArrow=none;html=1;rounded=0;exitX=0.5;exitY=0;exitDx=0;exitDy=0;entryX=0;entryY=1;entryDx=0;entryDy=0;" edge="1" parent="WIyWlLk6GJQsqaUBKTNV-1" source="kuhGH8qiXDGs2xV2Qm3V-9" target="cPJrFpIsc6c82qLKrWnZ-5">
          <mxGeometry width="50" height="50" relative="1" as="geometry">
            <mxPoint x="125.5" y="256" as="sourcePoint" />
            <mxPoint x="121" y="-175" as="targetPoint" />
          </mxGeometry>
        </mxCell>
        <mxCell id="kuhGH8qiXDGs2xV2Qm3V-12" value="&lt;font style=&quot;font-size: 12px;&quot;&gt;PRENDE IN PRESTITO&lt;/font&gt;" style="rhombus;whiteSpace=wrap;html=1;shadow=0;rounded=0;perimeterSpacing=0;strokeWidth=1;fillColor=#f5f5f5;fontColor=#333333;strokeColor=#666666;fillStyle=auto;double=0;" vertex="1" parent="WIyWlLk6GJQsqaUBKTNV-1">
          <mxGeometry x="209" y="333" width="116" height="81" as="geometry" />
        </mxCell>
        <mxCell id="kuhGH8qiXDGs2xV2Qm3V-13" value="" style="endArrow=none;html=1;rounded=0;exitX=0.5;exitY=0;exitDx=0;exitDy=0;entryX=0.117;entryY=1;entryDx=0;entryDy=0;entryPerimeter=0;" edge="1" parent="WIyWlLk6GJQsqaUBKTNV-1" source="kuhGH8qiXDGs2xV2Qm3V-12" target="cPJrFpIsc6c82qLKrWnZ-5">
          <mxGeometry width="50" height="50" relative="1" as="geometry">
            <mxPoint x="148.5" y="504" as="sourcePoint" />
            <mxPoint x="144" y="73" as="targetPoint" />
          </mxGeometry>
        </mxCell>
        <mxCell id="kuhGH8qiXDGs2xV2Qm3V-14" value="" style="endArrow=none;html=1;rounded=0;edgeStyle=elbowEdgeStyle;elbow=vertical;exitX=0.25;exitY=1;exitDx=0;exitDy=0;" edge="1" parent="WIyWlLk6GJQsqaUBKTNV-1" target="kuhGH8qiXDGs2xV2Qm3V-12" source="cPJrFpIsc6c82qLKrWnZ-28">
          <mxGeometry width="50" height="50" relative="1" as="geometry">
            <mxPoint x="696" y="742" as="sourcePoint" />
            <mxPoint x="280" y="397" as="targetPoint" />
            <Array as="points">
              <mxPoint x="348.5" y="962" />
            </Array>
          </mxGeometry>
        </mxCell>
        <mxCell id="kuhGH8qiXDGs2xV2Qm3V-15" value="" style="endArrow=none;html=1;rounded=0;entryX=0.5;entryY=1;entryDx=0;entryDy=0;edgeStyle=elbowEdgeStyle;elbow=vertical;exitX=0.25;exitY=1;exitDx=0;exitDy=0;" edge="1" parent="WIyWlLk6GJQsqaUBKTNV-1" source="cPJrFpIsc6c82qLKrWnZ-25" target="kuhGH8qiXDGs2xV2Qm3V-9">
          <mxGeometry width="50" height="50" relative="1" as="geometry">
            <mxPoint x="981.75" y="976.5" as="sourcePoint" />
            <mxPoint x="88.25000000000023" y="731.9999999999995" as="targetPoint" />
            <Array as="points">
              <mxPoint x="545" y="1030" />
            </Array>
          </mxGeometry>
        </mxCell>
      </root>
    </mxGraphModel>
  </diagram>
</mxfile>
